<mxfile host="app.diagrams.net" agent="Mozilla/5.0 (Windows NT 10.0; Win64; x64) AppleWebKit/537.36 (KHTML, like Gecko) Chrome/127.0.0.0 Safari/537.36" version="24.7.16">
  <diagram name="Trang-1" id="bcRg2KzBnWDiQKO2a2aQ">
    <mxGraphModel dx="2746" dy="708" grid="1" gridSize="10" guides="1" tooltips="1" connect="1" arrows="1" fold="1" page="1" pageScale="1" pageWidth="827" pageHeight="1169" math="0" shadow="0">
      <root>
        <mxCell id="0" />
        <mxCell id="1" parent="0" />
        <mxCell id="9e4NZzDz-OeogjAa4LYp-41" style="edgeStyle=orthogonalEdgeStyle;rounded=0;orthogonalLoop=1;jettySize=auto;html=1;" edge="1" parent="1" source="9e4NZzDz-OeogjAa4LYp-1">
          <mxGeometry relative="1" as="geometry">
            <mxPoint x="120" y="320" as="targetPoint" />
            <Array as="points">
              <mxPoint x="-40" y="475" />
              <mxPoint x="-40" y="320" />
            </Array>
          </mxGeometry>
        </mxCell>
        <mxCell id="9e4NZzDz-OeogjAa4LYp-1" value="" style="strokeWidth=1;shadow=0;dashed=0;align=center;html=1;shape=mxgraph.mockup.containers.browserWindow;rSize=0;strokeColor=#666666;strokeColor2=#008cff;strokeColor3=#c4c4c4;mainText=,;recursiveResize=0;" vertex="1" parent="1">
          <mxGeometry x="-490" y="390" width="310" height="170" as="geometry" />
        </mxCell>
        <mxCell id="9e4NZzDz-OeogjAa4LYp-2" value="&lt;font style=&quot;font-size: 10px;&quot;&gt;FriedChickenFriend&lt;/font&gt;" style="strokeWidth=1;shadow=0;dashed=0;align=center;html=1;shape=mxgraph.mockup.containers.anchor;fontSize=17;fontColor=#666666;align=left;whiteSpace=wrap;" vertex="1" parent="9e4NZzDz-OeogjAa4LYp-1">
          <mxGeometry x="60" y="12" width="110" height="26" as="geometry" />
        </mxCell>
        <mxCell id="9e4NZzDz-OeogjAa4LYp-3" value="&lt;font style=&quot;font-size: 10px;&quot;&gt;https://www.FriedChickenFriend.com&lt;/font&gt;" style="strokeWidth=1;shadow=0;dashed=0;align=center;html=1;shape=mxgraph.mockup.containers.anchor;rSize=0;fontSize=17;fontColor=#666666;align=left;" vertex="1" parent="9e4NZzDz-OeogjAa4LYp-1">
          <mxGeometry x="130" y="60" width="160" height="26" as="geometry" />
        </mxCell>
        <mxCell id="9e4NZzDz-OeogjAa4LYp-4" value="&lt;font style=&quot;font-size: 14px;&quot;&gt;&lt;b&gt;Slack App&lt;/b&gt;&lt;/font&gt;" style="shape=image;html=1;verticalAlign=top;verticalLabelPosition=bottom;labelBackgroundColor=#ffffff;imageAspect=0;aspect=fixed;image=https://cdn2.iconfinder.com/data/icons/social-media-2285/512/1_Slack_colored_svg-128.png" vertex="1" parent="1">
          <mxGeometry x="-400" y="100" width="110" height="110" as="geometry" />
        </mxCell>
        <mxCell id="9e4NZzDz-OeogjAa4LYp-30" style="edgeStyle=orthogonalEdgeStyle;rounded=0;orthogonalLoop=1;jettySize=auto;html=1;" edge="1" parent="1" source="9e4NZzDz-OeogjAa4LYp-6" target="9e4NZzDz-OeogjAa4LYp-8">
          <mxGeometry relative="1" as="geometry">
            <Array as="points">
              <mxPoint x="329" y="200" />
            </Array>
          </mxGeometry>
        </mxCell>
        <mxCell id="9e4NZzDz-OeogjAa4LYp-6" value="&lt;font style=&quot;font-size: 14px;&quot;&gt;&lt;b&gt;Amazon Lex&lt;/b&gt;&lt;/font&gt;" style="sketch=0;points=[[0,0,0],[0.25,0,0],[0.5,0,0],[0.75,0,0],[1,0,0],[0,1,0],[0.25,1,0],[0.5,1,0],[0.75,1,0],[1,1,0],[0,0.25,0],[0,0.5,0],[0,0.75,0],[1,0.25,0],[1,0.5,0],[1,0.75,0]];outlineConnect=0;fontColor=#232F3E;fillColor=#01A88D;strokeColor=#ffffff;dashed=0;verticalLabelPosition=bottom;verticalAlign=top;align=center;html=1;fontSize=12;fontStyle=0;aspect=fixed;shape=mxgraph.aws4.resourceIcon;resIcon=mxgraph.aws4.lex;" vertex="1" parent="1">
          <mxGeometry x="290" y="280" width="78" height="78" as="geometry" />
        </mxCell>
        <mxCell id="9e4NZzDz-OeogjAa4LYp-8" value="&lt;span style=&quot;font-size: 14px;&quot;&gt;Amazon Poly&lt;/span&gt;" style="sketch=0;outlineConnect=0;fontColor=#232F3E;gradientColor=none;strokeColor=#ffffff;fillColor=#232F3E;dashed=0;verticalLabelPosition=middle;verticalAlign=bottom;align=center;html=1;whiteSpace=wrap;fontSize=10;fontStyle=1;spacing=3;shape=mxgraph.aws4.productIcon;prIcon=mxgraph.aws4.polly;" vertex="1" parent="1">
          <mxGeometry x="490" y="160" width="80" height="120" as="geometry" />
        </mxCell>
        <mxCell id="9e4NZzDz-OeogjAa4LYp-33" style="edgeStyle=orthogonalEdgeStyle;rounded=0;orthogonalLoop=1;jettySize=auto;html=1;" edge="1" parent="1" source="9e4NZzDz-OeogjAa4LYp-21" target="9e4NZzDz-OeogjAa4LYp-22">
          <mxGeometry relative="1" as="geometry">
            <Array as="points">
              <mxPoint x="780" y="201" />
              <mxPoint x="780" y="201" />
            </Array>
          </mxGeometry>
        </mxCell>
        <mxCell id="9e4NZzDz-OeogjAa4LYp-21" value="&lt;br&gt;&lt;font style=&quot;font-size: 14px;&quot;&gt;&lt;b&gt;IAM Role Configuration&lt;br&gt;&lt;/b&gt;&lt;/font&gt;" style="outlineConnect=0;dashed=0;verticalLabelPosition=bottom;verticalAlign=top;align=center;html=1;shape=mxgraph.aws3.iam;fillColor=#759C3E;gradientColor=none;" vertex="1" parent="1">
          <mxGeometry x="670" y="160" width="40" height="81" as="geometry" />
        </mxCell>
        <mxCell id="9e4NZzDz-OeogjAa4LYp-27" value="AWS Cloud" style="points=[[0,0],[0.25,0],[0.5,0],[0.75,0],[1,0],[1,0.25],[1,0.5],[1,0.75],[1,1],[0.75,1],[0.5,1],[0.25,1],[0,1],[0,0.75],[0,0.5],[0,0.25]];outlineConnect=0;gradientColor=none;html=1;whiteSpace=wrap;fontSize=12;fontStyle=0;container=1;pointerEvents=0;collapsible=0;recursiveResize=0;shape=mxgraph.aws4.group;grIcon=mxgraph.aws4.group_aws_cloud;strokeColor=#232F3E;fillColor=none;verticalAlign=top;align=left;spacingLeft=30;fontColor=#232F3E;dashed=0;" vertex="1" parent="1">
          <mxGeometry x="80" y="120" width="830" height="440" as="geometry" />
        </mxCell>
        <mxCell id="9e4NZzDz-OeogjAa4LYp-7" value="&lt;font style=&quot;font-size: 14px;&quot;&gt;&lt;b&gt;Lambda function&lt;/b&gt;&lt;/font&gt;" style="outlineConnect=0;dashed=0;verticalLabelPosition=bottom;verticalAlign=top;align=center;html=1;shape=mxgraph.aws3.lambda_function;fillColor=#F58534;gradientColor=none;" vertex="1" parent="9e4NZzDz-OeogjAa4LYp-27">
          <mxGeometry x="385.5" y="280" width="69" height="72" as="geometry" />
        </mxCell>
        <mxCell id="9e4NZzDz-OeogjAa4LYp-22" value="&lt;font style=&quot;font-size: 14px;&quot;&gt;&lt;b&gt;Instance with&lt;br&gt;CloudWatch&lt;/b&gt;&lt;/font&gt;" style="sketch=0;outlineConnect=0;fontColor=#232F3E;gradientColor=none;strokeColor=#232F3E;fillColor=#ffffff;dashed=0;verticalLabelPosition=bottom;verticalAlign=top;align=center;html=1;fontSize=12;fontStyle=0;aspect=fixed;shape=mxgraph.aws4.resourceIcon;resIcon=mxgraph.aws4.instance_with_cloudwatch;" vertex="1" parent="9e4NZzDz-OeogjAa4LYp-27">
          <mxGeometry x="720" y="33.25" width="94.5" height="94.5" as="geometry" />
        </mxCell>
        <mxCell id="9e4NZzDz-OeogjAa4LYp-5" value="&lt;font style=&quot;font-size: 14px;&quot;&gt;&lt;b&gt;Amazon API Gateway&lt;/b&gt;&lt;/font&gt;" style="sketch=0;points=[[0,0,0],[0.25,0,0],[0.5,0,0],[0.75,0,0],[1,0,0],[0,1,0],[0.25,1,0],[0.5,1,0],[0.75,1,0],[1,1,0],[0,0.25,0],[0,0.5,0],[0,0.75,0],[1,0.25,0],[1,0.5,0],[1,0.75,0]];outlineConnect=0;fontColor=#232F3E;fillColor=#8C4FFF;strokeColor=#ffffff;dashed=0;verticalLabelPosition=bottom;verticalAlign=top;align=center;html=1;fontSize=12;fontStyle=0;aspect=fixed;shape=mxgraph.aws4.resourceIcon;resIcon=mxgraph.aws4.api_gateway;" vertex="1" parent="9e4NZzDz-OeogjAa4LYp-27">
          <mxGeometry x="40" y="160" width="80" height="80" as="geometry" />
        </mxCell>
        <mxCell id="9e4NZzDz-OeogjAa4LYp-29" style="edgeStyle=orthogonalEdgeStyle;rounded=0;orthogonalLoop=1;jettySize=auto;html=1;entryX=0;entryY=0.5;entryDx=0;entryDy=0;entryPerimeter=0;" edge="1" parent="1" source="9e4NZzDz-OeogjAa4LYp-5" target="9e4NZzDz-OeogjAa4LYp-6">
          <mxGeometry relative="1" as="geometry" />
        </mxCell>
        <mxCell id="9e4NZzDz-OeogjAa4LYp-31" style="edgeStyle=orthogonalEdgeStyle;rounded=0;orthogonalLoop=1;jettySize=auto;html=1;exitX=0.5;exitY=1;exitDx=0;exitDy=0;exitPerimeter=0;entryX=0;entryY=0.5;entryDx=0;entryDy=0;entryPerimeter=0;" edge="1" parent="1" source="9e4NZzDz-OeogjAa4LYp-6" target="9e4NZzDz-OeogjAa4LYp-7">
          <mxGeometry relative="1" as="geometry" />
        </mxCell>
        <mxCell id="9e4NZzDz-OeogjAa4LYp-32" style="edgeStyle=orthogonalEdgeStyle;rounded=0;orthogonalLoop=1;jettySize=auto;html=1;entryX=0.26;entryY=0.5;entryDx=0;entryDy=0;entryPerimeter=0;" edge="1" parent="1" target="9e4NZzDz-OeogjAa4LYp-21">
          <mxGeometry relative="1" as="geometry">
            <mxPoint x="570" y="200" as="sourcePoint" />
          </mxGeometry>
        </mxCell>
        <mxCell id="9e4NZzDz-OeogjAa4LYp-38" value="&lt;font style=&quot;font-size: 14px;&quot;&gt;&lt;b&gt;Web page&lt;/b&gt;&lt;/font&gt;" style="text;html=1;align=center;verticalAlign=middle;resizable=0;points=[];autosize=1;strokeColor=none;fillColor=none;" vertex="1" parent="1">
          <mxGeometry x="-360" y="570" width="90" height="30" as="geometry" />
        </mxCell>
        <mxCell id="9e4NZzDz-OeogjAa4LYp-40" style="edgeStyle=orthogonalEdgeStyle;rounded=0;orthogonalLoop=1;jettySize=auto;html=1;" edge="1" parent="1" source="9e4NZzDz-OeogjAa4LYp-4">
          <mxGeometry relative="1" as="geometry">
            <mxPoint x="120" y="320" as="targetPoint" />
            <Array as="points">
              <mxPoint x="-40" y="155" />
              <mxPoint x="-40" y="320" />
            </Array>
          </mxGeometry>
        </mxCell>
      </root>
    </mxGraphModel>
  </diagram>
</mxfile>
